<?xml version="1.0" encoding="utf-8"?>
<svg viewBox="0 0 500 500" xmlns="http://www.w3.org/2000/svg">
  <g id="Logos" transform="matrix(1, 0, 0, 1, -31.096918106079045, 16.33481788635254)">
    <path class="cls-116" d="M 181.258 332.256 C 279.552 141.151 473.537 54.516 473.537 54.516 C 279.552 87.649 165.728 240.528 165.728 240.528 L 72.618 164.077 L 181.258 332.256 Z" style="fill: rgb(239, 94, 69); stroke: rgb(239, 94, 69); stroke-linecap: round; stroke-linejoin: round; stroke-width: 3px;"/>
    <g style="" transform="matrix(2.304131, 0, 0, 2.304131, -99.570076, -138.38562)">
      <path class="cls-47" d="m228.73,140.49c0,24.96-18.66,45.56-42.79,48.61-2.03.26-4.11.39-6.21.39-27.06,0-49-21.94-49-49s21.94-49,49-49,49,21.94,49,49Z" style="fill: rgb(39, 34, 63); stroke-width: 0px;"/>
      <path class="cls-47" d="m204.8,239.59c2.03-.72,4.24-2.15,5.24-3.34l-13.7-49.64-10.4,2.5,12.03,50.37c1.83.46,4.91.6,6.82.12Z" style="fill: rgb(39, 34, 63); stroke-width: 0px;"/>
    </g>
    <circle class="cls-64" cx="313.4" cy="184.169" r="91.013" style="fill: rgb(255, 255, 255); stroke-width: 0px;"/>
    <path class="cls-91" d="M 222.847 174.999 C 222.847 174.999 215.105 209.63 246.649 246.081 C 246.649 246.081 300.612 166.036 377.846 119.907 C 377.846 119.907 362.685 102.419 336.741 96.175 C 336.741 96.175 264.736 127.119 222.847 174.999 Z" style="fill: rgb(238, 163, 122); stroke-width: 0px;"/>
  </g>
</svg>