<svg xmlns="http://www.w3.org/2000/svg" viewBox="24.61 107.09 422.31 204.87">
  <g id="Logos" transform="matrix(0.6618450284004211, 0, 0, 0.6618450284004211, -207.49052429199224, -37.10688018798828)" style="">
    <path class="cls-113" d="m729.16,356.98c42.66-82.94,126.85-120.54,126.85-120.54-84.19,14.38-133.59,80.73-133.59,80.73l-40.41-33.18,47.15,72.99Z" style="fill: rgb(239, 94, 69); stroke: rgb(239, 94, 69); stroke-linecap: round; stroke-linejoin: round; stroke-width: 3px;"/>
    <g>
      <path class="cls-47" d="m836.01,293.21c0,24.96-18.66,45.56-42.79,48.61-2.03.26-4.11.39-6.21.39-27.06,0-49-21.94-49-49s21.94-49,49-49,49,21.94,49,49Z" style="fill: rgb(39, 34, 63); stroke-width: 0px;"/>
      <path class="cls-47" d="m793.22,341.82l17.52,75.23s8.27,4.16,13.27-3.84l-20.39-73.89" style="fill: rgb(39, 34, 63); stroke-width: 0px;"/>
    </g>
    <circle class="cls-36" cx="786.51" cy="292.71" r="39.5" style="fill: rgb(203, 175, 239); stroke-width: 0px;"/>
    <path class="cls-89" d="m747.21,288.73s-3.36,15.03,10.33,30.85c0,0,23.42-34.74,56.94-54.76,0,0-6.58-7.59-17.84-10.3,0,0-31.25,13.43-49.43,34.21Z" style="fill: rgb(238, 163, 122); stroke-width: 0px;"/>
  </g>
  <g id="Veebee" transform="matrix(0.6618450284004211, 0, 0, 0.6618450284004211, -207.49052429199224, -37.10688018798828)" style="">
    <ellipse class="cls-47" cx="888.87" cy="526.34" rx="21.58" ry="1.08" style="fill: rgb(39, 34, 63); stroke-width: 0px;"/>
    <path class="cls-52" d="m847.15,477.83l-.23.49-7.77,23.18s-5.15,11.2-3.48,13.73c1.67,2.52,12.26-8.4,12.26-8.4,0,0,9.19-12.36,10.44-25.25v-.55" style="fill: rgb(211, 207, 171); stroke-width: 0px;"/>
    <path class="cls-52" d="m872.05,484.91l.18.94s2.05,15.1,4.83,26.16c2.79,11.06,10.59,12.61,13.09,14.01s4.32-1.96.98-7.7c-3.34-5.74-5.29-19.04-6.82-28.98l-.18-1" style="fill: rgb(211, 207, 171); stroke-width: 0px;"/>
    <path class="cls-9" d="m803.4,386.23s5.22,3.73,5.22,4.97-1.3,1.24-1.3,1.24c0,0-3.91-1.24-5.22-3.11-1.3-1.86,1.3-3.11,1.3-3.11Z" style="fill: rgb(242, 239, 199); stroke-width: 0px;"/>
    <path class="cls-9" d="m802.97,391.01s6.78,2.73,6.93,3.9c.15,1.18-1.43,1.38-1.43,1.38,0,0-4.9-.57-6.71-2.14s1.21-3.15,1.21-3.15Z" style="fill: rgb(242, 239, 199); stroke-width: 0px;"/>
    <path class="cls-9" d="m803.6,396.05s5.62,1.33,5.97,2.31-.8,1.38-.8,1.38c0,0-3.79.23-5.45-.84-1.66-1.07.29-2.85.29-2.85Z" style="fill: rgb(242, 239, 199); stroke-width: 0px;"/>
    <path class="cls-66" d="m818.2,392.07c1.63,5.57,2.51,11.34,6.44,15.88,4.22,4.88,9.3,9.47,14.61,13.12l1.58.99" style="fill: rgb(225, 222, 184); stroke-width: 0px;"/>
    <path class="cls-66" d="m820.94,395.77c-.83-.93-7.09-9.71-3.52-10.32,1.51-.26,3.28,4.15,3.89,5.16,2.72,4.5,5.73,9.12,8.81,13.37s7.31,7.2,11.78,10.01l1.18.69-2.25,7.36" style="fill: rgb(225, 222, 184); stroke-width: 0px;"/>
    <path class="cls-9" d="m825.64,471.72c2.19-7.16,12.32-40.27,15.2-49.67,3.45-11.29,6.91-22.58,10.36-33.87l75.57,22.69-26.12,82.15-75.02-21.3Z" style="fill: rgb(242, 239, 199); stroke-width: 0px;"/>
    <polygon class="cls-52" points="948.5 402.37 926.77 410.88 900.65 493.02 922.3 484.91 948.5 402.37" style="fill: rgb(211, 207, 171); stroke-width: 0px;"/>
    <polygon class="cls-28" points="951.73 401.21 926.77 410.88 930.53 398.9 955.2 389.37 951.73 401.21" style="fill: rgb(239, 94, 69); stroke-width: 0px;"/>
    <polygon class="cls-89" points="852.16 375.24 930.53 398.9 926.77 410.88 848.1 387.35 852.16 375.24" style="fill: rgb(238, 163, 122); stroke-width: 0px;"/>
    <polygon class="cls-89" points="881.02 367.12 852.16 375.24 930.53 398.9 955.2 389.37 881.02 367.12" style="fill: rgb(238, 163, 122); stroke-width: 0px;"/>
    <path class="cls-66" d="m957.42,453.14c2.39,1.87-.44,6.95-.44,6.95l1.54,9.51-5.79.95c-1,.5-4.35.43-5.47.41-22.34-.31-26.13-21.22-26.13-21.22,2.84-4.67,8.12-2.59,8.12-2.59,0,0,1.03,15.16,17.39,15.2,0,0,2.37-3.52,4.31-3.52.37,0,2.68-.75,3.31-2.22,1.92-4.47,2.82-3.73,3.16-3.46Z" style="fill: rgb(225, 222, 184); stroke-width: 0px;"/>
    <path class="cls-9" d="m961.45,466.59c-5.03-.14-10.18-.7-10.06,1.4.12,2.1,5.03,1.82,5.03,1.82h3.35s1.2.14,2.27-.98-.6-2.24-.6-2.24Z" style="fill: rgb(242, 239, 199); stroke-width: 0px;"/>
    <path class="cls-9" d="m961.43,462.95c-5.01-.15-10.14-.75-10.02,1.5s5.01,1.95,5.01,1.95h3.34s1.19.15,2.27-1.05c1.07-1.2-.6-2.4-.6-2.4Z" style="fill: rgb(242, 239, 199); stroke-width: 0px;"/>
    <path class="cls-9" d="m951.39,460.73s.03-2.11,8.65-1.62c0,0,2.6.65,1.77,3.67,0,0-10.64.6-10.42-2.06Z" style="fill: rgb(242, 239, 199); stroke-width: 0px;"/>
    <path id="paper" class="cls-65" d="m918.33,385.58c1.77-8.04,2-7.09,8.61-12.98,6.61-5.88,4.04-11.77,4.04-11.77l-19.85-5.46s1.46,4.62-6.9,11.56c-8.36,6.93-7.84,12.01-7.84,12.01" style="fill: rgb(255, 255, 255); stroke-width: 0px;"/>
    <path class="cls-47" d="m864.38,437.14c5.11,8.55,11.35,11.45,20.54,6.65-7.94,7.27-17.82,3.24-20.54-6.65h0Z" style="fill: rgb(39, 34, 63); stroke-width: 0px;"/>
    <path class="cls-47" d="m867.1,408.91c2.91,3.65,5.35,7.61,7.69,11.64-1.09.55-2.18,1.15-3.28,1.68-2.62,1.3-5.26,2.52-8.03,3.51,2.36-1.75,4.85-3.27,7.38-4.73.84-.5,1.7-.95,2.55-1.42l-.29,1.03c-2.23-3.79-4.34-7.63-6.01-11.71h0Z" style="fill: rgb(39, 34, 63); stroke-width: 0px;"/>
    <ellipse class="cls-47" cx="889.96" cy="424.89" rx="7.96" ry="4.6" transform="translate(221.62 1150.07) rotate(-72.86)" style="fill: rgb(39, 34, 63); stroke-width: 0px;"/>
    <path class="cls-47" d="m890.2,377.06c1.42.21,2.82.5,4.22.75l4.07,1.24,8.15,2.47,8.15,2.47,4.08,1.23c1.31.57,2.63,1.11,3.93,1.71-1.42-.22-2.81-.51-4.22-.76l-4.08-1.23-8.15-2.47-8.15-2.47-4.08-1.23c-1.31-.57-2.63-1.1-3.93-1.72,0,0,1.3.61,0,0Z" style="fill: rgb(39, 34, 63); stroke-width: 0px;"/>
    <g id="Frills">
      <path class="cls-89" d="m830.79,451.38c2.85,4.45,8.64,7.34,13.93,6.43.62-.11,1.21-.28,1.79-.51.27-.11.63-.36.92-.42l-.38-.03c.11.21.22.41.33.62.73,1.3,1.68,2.51,2.78,3.52,2.26,2.07,5.09,3.4,8.14,3.75s6.5-.39,9.2-2.08c.28-.17.79-.42.99-.69l.32-.23c-.36-.21-.41-.14-.15.21.11.61.79,1.35,1.17,1.82.9,1.12,2.05,2.05,3.31,2.76,2.92,1.63,6.29,2.03,9.59,1.87.93-.05,1.86-.14,2.79-.25.6-.07,1.69-.45,2.27-.28.52.15.83.81,1.2,1.23.49.55,1.04,1.04,1.62,1.5,4.56,3.62,11.6,5.25,17.1,2.95.75-.31,1.27-.99,1.05-1.85-.19-.71-1.1-1.36-1.85-1.05-4.57,1.91-10.35.75-14.23-2.22-.92-.7-1.6-1.55-2.34-2.42-1.2-1.4-2.69-1.13-4.36-.92-3.27.4-6.7.67-9.85-.48-1.17-.42-2.3-1.07-3.21-1.92-.52-.48-.97-1.02-1.33-1.63s-.58-1.32-1.12-1.81c-1.27-1.15-2.63-.47-3.81.36-1.33.94-2.78,1.6-4.37,1.95-2.94.65-6,.06-8.53-1.56-1.14-.73-2.17-1.69-2.98-2.78-.78-1.05-1.2-2.62-2.49-3.18-1.4-.6-2.7.56-4.06.82s-2.73.11-4.03-.24c-2.71-.73-5.29-2.38-6.82-4.76-1.04-1.62-3.64-.12-2.59,1.51h0Z" style="fill: rgb(238, 163, 122); stroke-width: 0px;"/>
      <path class="cls-89" d="m829.7,457.25c2.43,1.29,4.7,2.87,7.2,4.02,1.21.56,2.46,1.06,3.77,1.3s2.63.09,3.97.17c1.52.09,2.59,1.1,3.72,2.02s2.17,1.75,3.37,2.45c2.5,1.46,5.2,1.75,8.04,1.68s5.64-.22,8.23,1.42,4.75,3.29,7.58,4.18c2.99.94,5.79.4,8.82.05s5.28.53,7.82,2.07c3.74,2.27,10.45,6.3,14.34,2.18,1.33-1.4-.79-3.53-2.12-2.12-1.39,1.47-3.86.69-5.51.1-2.24-.81-4.18-2.19-6.23-3.36-2.31-1.31-4.71-2.13-7.4-1.96-2.88.18-5.64,1.06-8.51.26-2.74-.76-4.92-2.5-7.28-4-2.35-1.49-4.88-1.92-7.62-1.89s-5.44.4-7.92-.81-4.15-3.43-6.56-4.61c-1.44-.7-2.88-.65-4.44-.64-1.32.01-2.57-.29-3.79-.77-2.82-1.1-5.31-2.93-7.98-4.35-1.7-.91-3.22,1.68-1.51,2.59h0Z" style="fill: rgb(238, 163, 122); stroke-width: 0px;"/>
      <path class="cls-89" d="m841.35,462.39c-.71,1.62-1.43,3.24-2.14,4.86-.17.38-.27.74-.15,1.16.1.35.36.73.69.9.35.18.77.28,1.16.15.35-.11.74-.34.9-.69.71-1.62,1.43-3.24,2.14-4.86.17-.38.27-.74.15-1.16-.1-.35-.36-.73-.69-.9-.35-.18-.77-.28-1.16-.15-.35.11-.74.34-.9.69h0Z" style="fill: rgb(238, 163, 122); stroke-width: 0px;"/>
      <path class="cls-89" d="m847.32,462.78c-.75.88-1.4,1.84-1.86,2.9-.51,1.18-.82,2.35-.96,3.63-.04.36.2.82.44,1.06.26.26.69.46,1.06.44s.79-.14,1.06-.44c.29-.31.39-.64.44-1.06,0-.06.01-.12.02-.18-.03.25-.04.29-.02.13.02-.12.04-.24.06-.36.05-.24.1-.48.17-.72s.14-.47.22-.7c.04-.12.08-.23.13-.34.02-.06.05-.11.07-.17-.09.2-.11.25-.06.15.2-.43.41-.85.66-1.26.13-.21.27-.41.41-.61.04-.05.07-.1.11-.15-.14.18-.16.21-.07.09.08-.09.16-.19.24-.28.26-.31.44-.65.44-1.06,0-.37-.16-.81-.44-1.06-.56-.51-1.58-.64-2.12,0h0Z" style="fill: rgb(238, 163, 122); stroke-width: 0px;"/>
      <path class="cls-89" d="m862.93,468.91c-.68,1.93-1.1,3.92-1.34,5.96-.04.35.2.82.44,1.06.26.26.69.46,1.06.44s.79-.14,1.06-.44c.29-.31.39-.64.44-1.06,0-.04.06-.48.03-.22s.03-.18.03-.22c.03-.21.07-.42.1-.63.08-.47.18-.94.29-1.4.21-.91.48-1.81.79-2.69.26-.74-.29-1.67-1.05-1.85-.84-.19-1.57.25-1.85,1.05h0Z" style="fill: rgb(238, 163, 122); stroke-width: 0px;"/>
      <path class="cls-89" d="m868.11,468.78c-1.29,2.14-1.88,4.75-1.57,7.23.05.41.13.75.44,1.06.26.26.69.46,1.06.44.73-.03,1.61-.67,1.5-1.5-.07-.55-.1-1.1-.08-1.65,0-.26.03-.51.06-.77.02-.17.02-.15-.01.07.01-.07.02-.15.03-.22.02-.13.05-.25.07-.38.11-.52.26-1.04.45-1.54.03-.07.05-.14.08-.21-.08.19-.09.21-.02.05.05-.1.09-.2.14-.3.13-.27.27-.52.42-.78.4-.67.17-1.68-.54-2.05s-1.62-.18-2.05.54h0Z" style="fill: rgb(238, 163, 122); stroke-width: 0px;"/>
      <path class="cls-89" d="m883.73,474.87c.06.48.09.97.07,1.46,0,.23-.03.45-.05.68-.02.17-.01.13.02-.11,0,.06-.02.13-.03.19-.02.11-.04.22-.06.34-.1.46-.23.91-.39,1.36-.02.06-.05.12-.07.18-.06.15-.05.12.04-.09,0,0-.12.25-.12.27-.11.23-.24.46-.37.69-.4.68-.18,1.68.54,2.05s1.63.18,2.05-.54c1.14-1.92,1.67-4.25,1.38-6.47-.05-.41-.13-.75-.44-1.06-.26-.26-.69-.46-1.06-.44s-.79.14-1.06.44c-.25.27-.49.68-.44,1.06h0Z" style="fill: rgb(238, 163, 122); stroke-width: 0px;"/>
      <path class="cls-89" d="m888.28,475.05c.02.07.03.13.05.2.05.2-.01-.01,0-.1-.01.13.02.27.02.4,0,.15-.02.3-.02.45,0,.2.06-.3.01-.1-.01.07-.02.13-.04.2-.11.56-.31,1.11-.52,1.64-.47,1.21-.92,2.35-1.08,3.64-.09.78.76,1.53,1.5,1.5.89-.04,1.4-.66,1.5-1.5-.01.09-.05.29-.01.09.01-.07.02-.14.04-.21.03-.16.07-.31.11-.46.08-.29.18-.58.28-.86.21-.57.45-1.13.66-1.7.48-1.29.72-2.64.38-3.99-.19-.76-1.09-1.29-1.85-1.05s-1.25,1.03-1.05,1.85h0Z" style="fill: rgb(238, 163, 122); stroke-width: 0px;"/>
    </g>
    <g>
      <g>
        <path class="cls-28" d="m847.89,426.05c1.46,2.34,2.26,4.82,2.4,7.56-1.45-2.29-2.27-4.87-2.4-7.56h0Z" style="fill: rgb(239, 94, 69); stroke-width: 0px;"/>
        <path class="cls-28" d="m850.29,424.89c1.45,2.31,2.26,4.84,2.4,7.56-1.46-2.3-2.26-4.84-2.4-7.56h0Z" style="fill: rgb(239, 94, 69); stroke-width: 0px;"/>
        <path class="cls-28" d="m853.43,423.53c1.55,2.36,2.46,4.96,2.72,7.77-1.55-2.36-2.46-4.96-2.72-7.77h0Z" style="fill: rgb(239, 94, 69); stroke-width: 0px;"/>
        <path class="cls-28" d="m856.14,423.53c-3.07,2.31-6.54,4.06-10.24,5.15,3.12-2.34,6.49-4.03,10.24-5.15h0Z" style="fill: rgb(239, 94, 69); stroke-width: 0px;"/>
        <path class="cls-28" d="m856.87,426.05c-2.98,2.35-6.3,4.11-9.93,5.25,2.98-2.36,6.3-4.11,9.93-5.25h0Z" style="fill: rgb(239, 94, 69); stroke-width: 0px;"/>
        <path class="cls-28" d="m857.71,428.67c-2.98,2.13-6.26,3.64-9.82,4.52,2.98-2.13,6.27-3.64,9.82-4.52h0Z" style="fill: rgb(239, 94, 69); stroke-width: 0px;"/>
      </g>
      <g>
        <path class="cls-28" d="m894.41,436.51c1.8,2.8,2.97,5.85,3.48,9.14-1.8-2.79-2.96-5.85-3.48-9.14h0Z" style="fill: rgb(239, 94, 69); stroke-width: 0px;"/>
        <path class="cls-28" d="m897.02,434.86c1.86,2.92,3.1,6.11,3.67,9.53-1.87-2.92-3.09-6.11-3.67-9.53h0Z" style="fill: rgb(239, 94, 69); stroke-width: 0px;"/>
        <path class="cls-28" d="m900.12,433.69c1.77,2.84,2.91,5.93,3.38,9.23-1.77-2.83-2.9-5.93-3.38-9.23h0Z" style="fill: rgb(239, 94, 69); stroke-width: 0px;"/>
        <path class="cls-28" d="m902.44,434.37c-2.96,2.35-6.26,4.11-9.86,5.25,2.96-2.36,6.26-4.11,9.86-5.25h0Z" style="fill: rgb(239, 94, 69); stroke-width: 0px;"/>
        <path class="cls-28" d="m903.5,437.58c-2.7,2.22-5.74,3.85-9.09,4.86,2.7-2.23,5.74-3.85,9.09-4.86h0Z" style="fill: rgb(239, 94, 69); stroke-width: 0px;"/>
        <path class="cls-28" d="m904.85,440.01c-2.76,2.28-5.86,3.98-9.28,5.06,2.76-2.29,5.87-3.97,9.28-5.06h0Z" style="fill: rgb(239, 94, 69); stroke-width: 0px;"/>
      </g>
    </g>
    <polygon class="cls-89" points="827.71 464.95 902.67 486.67 900.65 493.02 825.64 471.72 827.71 464.95" style="fill: rgb(238, 163, 122); stroke-width: 0px;"/>
    <polygon class="cls-28" points="902.67 486.67 924.18 478.99 922.3 484.91 900.65 493.02 902.67 486.67" style="fill: rgb(239, 94, 69); stroke-width: 0px;"/>
  </g>
  <g id="Clear__te" transform="matrix(0.6618450284004211, 0, 0, 0.6618450284004211, -207.49052429199224, -37.10688018798828)" style="">
    <g>
      <path class="cls-65" d="m866.04,318.36v-45.92h-12.32v-16.32h6.4c6.08,0,8-2.88,8-8.64v-14.24h18.4v22.88h17.12v16.32h-17.12v50.88h15.84v16.32h-14.72c-14.08,0-21.6-7.68-21.6-21.28Z" style="fill: rgb(255, 255, 255); stroke-width: 0px;"/>
      <path class="cls-65" d="m911.96,297.72c0-26.4,14.24-43.52,38.72-43.52,26.08,0,38.08,19.2,38.08,42.08v6.72h-55.52v2.08c0,12,6.88,20.16,20.32,20.16,10.08,0,16.16-4.8,21.28-11.36l11.04,12.32c-6.88,9.44-19.04,15.36-34.56,15.36-24.64,0-39.36-17.12-39.36-43.84Zm21.28-8.64v1.28h34.24v-1.44c0-11.52-5.92-19.36-16.48-19.36s-17.76,8-17.76,19.52Z" style="fill: rgb(255, 255, 255); stroke-width: 0px;"/>
    </g>
    <g>
      <path class="cls-65" d="m350.68,281.23c0-37.6,18.72-58.56,48.16-58.56,20,0,32.96,8.48,40.8,25.76l-18.08,9.6c-3.2-9.92-10.24-16.64-22.72-16.64-15.68,0-25.76,11.36-25.76,30.4v17.6c0,19.2,10.08,30.08,25.76,30.08,12.64,0,20.48-7.68,24.16-17.76l17.12,10.08c-8,16.64-21.28,26.4-41.28,26.4-29.44,0-48.16-19.36-48.16-56.96Z" style="fill: rgb(255, 255, 255); stroke-width: 0px;"/>
      <path class="cls-65" d="m474.2,336.27c-13.92,0-20.48-7.36-20.48-20.16v-98.24h20.48v102.08h11.04v16.32h-11.04Z" style="fill: rgb(255, 255, 255); stroke-width: 0px;"/>
      <path class="cls-65" d="m491.96,294.35c0-26.4,14.24-43.52,38.72-43.52,26.08,0,38.08,19.2,38.08,42.08v6.72h-55.52v2.08c0,12,6.88,20.16,20.32,20.16,10.08,0,16.16-4.8,21.28-11.36l11.04,12.32c-6.88,9.44-19.04,15.36-34.56,15.36-24.64,0-39.36-17.12-39.36-43.84Zm21.28-8.64v1.28h34.24v-1.44c0-11.52-5.92-19.36-16.48-19.36s-17.76,8-17.76,19.52Z" style="fill: rgb(255, 255, 255); stroke-width: 0px;"/>
      <path class="cls-65" d="m577.72,313.55c0-17.12,12.96-25.6,35.68-25.6h14.24v-6.08c0-9.28-4.64-14.72-15.52-14.72-9.6,0-15.04,4.8-19.04,10.56l-12.16-10.88c6.08-9.6,15.84-16,32.64-16,22.56,0,34.56,10.72,34.56,29.76v39.36h8.32v16.32h-11.36c-8.8,0-14.24-5.76-15.52-14.4h-.96c-2.72,10.72-11.84,16.32-24.32,16.32-16.96,0-26.56-9.76-26.56-24.64Zm49.92-2.24v-11.04h-13.12c-10.72,0-16,3.68-16,10.24v2.72c0,6.72,4.64,10.08,12.64,10.08,9.12,0,16.48-4.16,16.48-12Z" style="fill: rgb(255, 255, 255); stroke-width: 0px;"/>
      <path class="cls-65" d="m679.66,286.71c-1.36-1.97-1.13-3.78.38-5.01,1.88-1.53,3.53-1.1,5.22.21,1.29,1,3.69,3.2,5.1,4.26v-1.1c0-9.12,7.2-12.96,20.96-12.96h6.4v-19.36h-4.48c-13.28,0-20,8.48-22.08,17.28h-.8v-17.28h-20.48v83.52h20.48l-.17-33.64" style="fill: rgb(255, 255, 255); stroke-width: 0px;"/>
    </g>
    <text style="white-space: pre;"/>
  </g>
</svg>