<?xml version="1.0" encoding="utf-8"?>
<!-- Generator: Adobe Illustrator 28.0.0, SVG Export Plug-In . SVG Version: 6.00 Build 0)  -->
<svg version="1.1" id="Layer_1" xmlns="http://www.w3.org/2000/svg" xmlns:xlink="http://www.w3.org/1999/xlink" x="0px" y="0px"
	 viewBox="0 0 300 300" style="enable-background:new 0 0 300 300;" xml:space="preserve">
<g>
	<g>
		<path d="M119.66,150.86c-3.76,4.38-7.45,8.82-11.05,13.35c-1.89,2.38-3.76,4.77-6.05,7.68c-0.87-1.14-1.42-2.03-2.13-2.76
			c-10.9-11.23-21.81-22.43-32.73-33.64c-4.46-4.58-9.06-9.03-13.37-13.74c-4.6-5.02-10.64-6.04-16.38-2.33
			c-2.65,1.71-5.28,3.46-7.86,5.28c-5.13,3.64-6.7,10.3-3.77,15.85c1.85,3.5,3.76,6.97,5.62,10.47
			c8.29,15.53,16.54,31.07,24.86,46.58c3.29,6.13,6.73,12.18,10.11,18.27c0.06,0.28,0.05,0.59,0.18,0.83
			c6.65,12.5,13.1,25.11,20.03,37.46c5.73,10.2,19.2,12.3,27.53,4.22c3.01-2.92,4.89-7.06,7.02-10.79
			c8.96-15.67,17.53-31.58,26.8-47.07c3.19-5.33,6.46-10.61,9.81-15.85C141.7,178.4,127.98,166.3,119.66,150.86z"/>
		<path d="M275.61,42.17c-1.15-4.12-5.68-8.65-11.7-5.52c-1.69,0.88-3.41,1.71-5.11,2.57c-0.1,0.04-0.2,0.07-0.3,0.11
			c-5.53,3.1-11.06,6.21-16.59,9.31c-1.67,0.93-3.34,1.87-5.01,2.8c-0.73,0.31-1.52,0.53-2.18,0.96c-2.43,1.59-4.85,3.19-7.27,4.78
			c7.34,5.4,13.63,12.14,18.52,19.86c8.93-8.53,17.97-16.95,26.93-25.45C275.69,48.95,276.61,45.76,275.61,42.17z"/>
	</g>
	<path d="M239.21,68.01c-9.51-10.86-22.17-18.9-36.56-22.65c-4.93,3.43-9.92,6.77-14.66,10.44c-19.39,14.99-37.94,30.97-55.55,48.03
		c-7.14,6.91-14.12,13.96-20.96,21.15c2.86,23.87,17.19,44.2,37.34,55.32c10.12-15.2,20.72-30.07,31.81-44.62
		c17.22-22.58,35.37-44.4,55.39-64.52C237.07,70.11,238.15,69.07,239.21,68.01z"/>
</g>
<path d="M267.67,230.51l-33.23-56.52c16.15-14.07,26.38-34.76,26.38-57.81c0-42.29-34.4-76.69-76.69-76.69
	c-42.29,0-76.69,34.4-76.69,76.69c0,42.29,34.4,76.69,76.69,76.69c8.95,0,17.53-1.55,25.52-4.38l32.34,56.67
	c4.05,7.09,13.08,9.56,20.17,5.51h0C269.25,246.63,271.72,237.6,267.67,230.51z M114.43,116.18c0-38.43,31.26-69.69,69.69-69.69
	c38.43,0,69.69,31.26,69.69,69.69c0,38.43-31.26,69.69-69.69,69.69C145.7,185.88,114.43,154.61,114.43,116.18z"/>
</svg>
