<?xml version="1.0" encoding="utf-8"?>
<svg viewBox="0 0 500 500" xmlns="http://www.w3.org/2000/svg">
  <g id="Veebee" transform="matrix(1, 0, 0, 1, -287.76861572265625, -9.894464492797852)">
    <ellipse ry="1.08" rx="21.58" cy="317.235" cx="522.961" class="cls-48" style="fill: rgb(39, 34, 63); stroke-width: 0px;"/>
    <path d="M 481.251 268.725 L 481.021 269.215 L 473.251 292.395 C 473.251 292.395 468.101 303.595 469.771 306.125 C 471.441 308.645 482.031 297.725 482.031 297.725 C 482.031 297.725 491.221 285.365 492.471 272.475 L 492.471 271.925" class="cls-53" style="fill: rgb(211, 207, 171); stroke-width: 0px;"/>
    <path d="M 506.141 275.805 L 506.321 276.745 C 506.321 276.745 508.371 291.845 511.151 302.905 C 513.931 313.965 521.741 315.515 524.241 316.915 C 526.741 318.315 528.561 314.955 525.221 309.215 C 521.881 303.475 519.931 290.175 518.401 280.235 L 518.221 279.235" class="cls-53" style="fill: rgb(211, 207, 171); stroke-width: 0px;"/>
    <path d="M 452.301 182.965 C 452.601 183.985 450.111 180.675 448.461 180.675 C 446.671 180.675 440.031 189.315 448.651 192.165 C 452.331 193.385 452.091 191.905 454.141 194.275 C 458.361 199.155 468.041 208.315 473.351 211.965 L 474.931 212.955" class="cls-67" style="fill: rgb(225, 222, 184); stroke-width: 0px;"/>
    <path d="M 455.031 186.665 C 454.201 185.735 447.941 176.955 451.511 176.345 C 453.021 176.085 454.791 180.495 455.401 181.505 C 458.121 186.005 461.131 190.625 464.211 194.875 C 467.351 199.215 471.521 202.075 475.991 204.885 L 477.171 205.575 L 474.921 212.935" class="cls-67" style="fill: rgb(225, 222, 184); stroke-width: 0px;"/>
    <path d="M 459.731 262.615 C 461.921 255.455 472.051 222.345 474.931 212.945 C 478.381 201.655 481.841 190.365 485.291 179.075 L 560.861 201.765 L 534.741 283.915 L 459.721 262.615 L 459.731 262.615 Z" class="cls-9" style="fill: rgb(242, 239, 199); stroke-width: 0px;"/>
    <polygon points="582.601 193.265 560.861 201.775 534.741 283.915 556.401 275.805 582.601 193.265" class="cls-53" style="fill: rgb(211, 207, 171); stroke-width: 0px;"/>
    <polygon points="585.821 192.105 560.861 201.775 564.631 189.795 589.291 180.265 585.821 192.105" class="cls-28" style="fill: rgb(239, 94, 69); stroke-width: 0px;"/>
    <polygon points="486.251 166.135 564.631 189.795 560.861 201.775 482.191 178.245 486.251 166.135" class="cls-93" style="fill: rgb(238, 163, 122); stroke-width: 0px;"/>
    <polygon points="515.111 158.015 486.251 166.135 564.631 189.795 589.291 180.265 515.111 158.015" class="cls-93" style="fill: rgb(238, 163, 122); stroke-width: 0px;"/>
    <path d="M 591.521 244.035 C 593.911 245.905 591.081 250.985 591.081 250.985 L 592.621 260.495 L 586.831 261.445 C 585.831 261.945 582.481 261.875 581.361 261.855 C 559.021 261.545 555.231 240.635 555.231 240.635 C 558.071 235.965 563.351 238.045 563.351 238.045 C 563.351 238.045 564.381 253.205 580.741 253.245 C 580.741 253.245 583.111 249.725 585.051 249.725 C 585.421 249.725 587.731 248.975 588.361 247.505 C 590.281 243.035 591.181 243.775 591.521 244.045 L 591.521 244.035 Z" class="cls-67" style="fill: rgb(225, 222, 184); stroke-width: 0px;"/>
    <path d="M 595.541 257.485 C 590.511 257.345 585.361 256.785 585.481 258.885 C 585.601 260.985 590.511 260.705 590.511 260.705 L 593.861 260.705 C 593.861 260.705 595.061 260.845 596.131 259.725 C 597.211 258.605 595.531 257.485 595.531 257.485 L 595.541 257.485 Z" class="cls-9" style="fill: rgb(242, 239, 199); stroke-width: 0px;"/>
    <path d="M 595.521 253.845 C 590.511 253.695 585.381 253.095 585.501 255.345 C 585.621 257.595 590.511 257.295 590.511 257.295 L 593.851 257.295 C 593.851 257.295 595.041 257.445 596.121 256.245 C 597.191 255.045 595.521 253.845 595.521 253.845 Z" class="cls-9" style="fill: rgb(242, 239, 199); stroke-width: 0px;"/>
    <path d="M 585.481 251.625 C 585.481 251.625 585.511 249.515 594.131 250.005 C 594.131 250.005 596.731 250.655 595.901 253.675 C 595.901 253.675 585.261 254.275 585.481 251.615 L 585.481 251.625 Z" class="cls-9" style="fill: rgb(242, 239, 199); stroke-width: 0px;"/>
    <path d="M 552.421 176.475 C 554.191 168.435 554.421 169.385 561.031 163.495 C 567.641 157.605 565.071 151.725 565.071 151.725 L 545.221 146.265 C 545.221 146.265 546.681 150.885 538.321 157.825 C 529.961 164.755 530.481 169.835 530.481 169.835" class="cls-118" data-name="paper" id="paper-2" style="fill: rgb(255, 255, 255); stroke: rgb(39, 34, 63); stroke-miterlimit: 10;"/>
    <path d="M 498.481 228.035 C 503.591 236.585 509.831 239.485 519.021 234.685 C 511.081 241.955 501.201 237.925 498.481 228.035 Z" class="cls-48" style="fill: rgb(39, 34, 63); stroke-width: 0px;"/>
    <path d="M 501.191 199.805 C 504.101 203.455 506.541 207.415 508.881 211.445 C 507.791 211.995 506.701 212.595 505.601 213.125 C 502.981 214.425 500.341 215.645 497.571 216.635 C 499.931 214.885 502.421 213.365 504.951 211.905 C 505.791 211.405 506.651 210.955 507.501 210.485 L 507.211 211.515 C 504.981 207.725 502.871 203.885 501.201 199.805 L 501.191 199.805 Z" class="cls-48" style="fill: rgb(39, 34, 63); stroke-width: 0px;"/>
    <ellipse transform="matrix(0.294708, -0.955587, 0.955587, 0.294708, 55.31118, 882.715449)" ry="4.6" rx="7.96" cy="251.33" cx="775.47" class="cls-48" style="fill: rgb(39, 34, 63); stroke-width: 0px;"/>
    <path d="M 524.291 167.955 C 525.711 168.165 527.111 168.455 528.511 168.705 L 532.581 169.945 L 540.731 172.415 L 548.881 174.885 L 552.961 176.115 C 554.271 176.685 555.591 177.225 556.891 177.825 C 555.471 177.605 554.081 177.315 552.671 177.065 L 548.591 175.835 L 540.441 173.365 L 532.291 170.895 L 528.211 169.665 C 526.901 169.095 525.581 168.565 524.281 167.945 C 524.281 167.945 525.581 168.555 524.281 167.945 L 524.291 167.955 Z" class="cls-48" style="fill: rgb(39, 34, 63); stroke-width: 0px;"/>
    <g data-name="Frills" id="Frills-2" transform="matrix(1, 0, 0, 1, -251.408829, -35.544544)">
      <path d="m716.3,277.82c2.85,4.45,8.64,7.34,13.93,6.43.62-.11,1.21-.28,1.79-.51.27-.11.63-.36.92-.42l-.38-.03c.11.21.22.41.33.62.73,1.3,1.68,2.51,2.78,3.52,2.26,2.07,5.09,3.4,8.14,3.75s6.5-.39,9.2-2.08c.28-.17.79-.42.99-.69l.32-.23c-.36-.21-.41-.14-.15.21.11.61.79,1.35,1.17,1.82.9,1.12,2.05,2.05,3.31,2.76,2.92,1.63,6.29,2.03,9.59,1.87.93-.05,1.86-.14,2.79-.25.6-.07,1.69-.45,2.27-.28.52.15.83.81,1.2,1.23.49.55,1.04,1.04,1.62,1.5,4.56,3.62,11.6,5.25,17.1,2.95.75-.31,1.27-.99,1.05-1.85-.19-.71-1.1-1.36-1.85-1.05-4.57,1.91-10.35.75-14.23-2.22-.92-.7-1.6-1.55-2.34-2.42-1.2-1.4-2.69-1.13-4.36-.92-3.27.4-6.7.67-9.85-.48-1.17-.42-2.3-1.07-3.21-1.92-.52-.48-.97-1.02-1.33-1.63s-.58-1.32-1.12-1.81c-1.27-1.15-2.63-.47-3.81.36-1.33.94-2.78,1.6-4.37,1.95-2.94.65-6,.06-8.53-1.56-1.14-.73-2.17-1.69-2.98-2.78-.78-1.05-1.2-2.62-2.49-3.18-1.4-.6-2.7.56-4.06.82s-2.73.11-4.03-.24c-2.71-.73-5.29-2.38-6.82-4.76-1.04-1.62-3.64-.12-2.59,1.51h0Z" class="cls-93" style="fill: rgb(238, 163, 122); stroke-width: 0px;"/>
      <path d="m715.21,283.69c2.43,1.29,4.7,2.87,7.2,4.02,1.21.56,2.46,1.06,3.77,1.3s2.63.09,3.97.17c1.52.09,2.59,1.1,3.72,2.02,1.08.87,2.17,1.75,3.37,2.45,2.5,1.46,5.2,1.75,8.04,1.68s5.64-.22,8.23,1.42c2.47,1.56,4.75,3.29,7.58,4.18,2.99.94,5.79.4,8.82.05s5.28.53,7.82,2.07c3.74,2.27,10.45,6.3,14.34,2.18,1.33-1.4-.79-3.53-2.12-2.12-1.39,1.47-3.86.69-5.51.1-2.24-.81-4.18-2.19-6.23-3.36-2.31-1.31-4.71-2.13-7.4-1.96-2.88.18-5.64,1.06-8.51.26-2.74-.76-4.92-2.5-7.28-4s-4.88-1.92-7.62-1.89-5.44.4-7.92-.81c-2.43-1.19-4.15-3.43-6.56-4.61-1.44-.7-2.88-.65-4.44-.64-1.32.01-2.57-.29-3.79-.77-2.82-1.1-5.31-2.93-7.98-4.35-1.7-.91-3.22,1.68-1.51,2.59h0Z" class="cls-93" style="fill: rgb(238, 163, 122); stroke-width: 0px;"/>
      <path d="m726.86,288.83c-.71,1.62-1.43,3.24-2.14,4.86-.17.38-.27.74-.15,1.16.1.35.36.73.69.9.35.18.77.28,1.16.15.35-.11.74-.34.9-.69l2.14-4.86c.17-.38.27-.74.15-1.16-.1-.35-.36-.73-.69-.9-.35-.18-.77-.28-1.16-.15-.35.11-.74.34-.9.69h0Z" class="cls-93" style="fill: rgb(238, 163, 122); stroke-width: 0px;"/>
      <path d="m732.83,289.22c-.75.88-1.4,1.84-1.86,2.9-.51,1.18-.82,2.35-.96,3.63-.04.36.2.82.44,1.06.26.26.69.46,1.06.44s.79-.14,1.06-.44c.29-.31.39-.64.44-1.06,0-.06.01-.12.02-.18-.03.25-.04.29-.02.13.02-.12.04-.24.06-.36.05-.24.1-.48.17-.72s.14-.47.22-.7c.04-.12.08-.23.13-.34.02-.06.05-.11.07-.17-.09.2-.11.25-.06.15.2-.43.41-.85.66-1.26.13-.21.27-.41.41-.61.04-.05.07-.1.11-.15-.14.18-.16.21-.07.09.08-.09.16-.19.24-.28.26-.31.44-.65.44-1.06,0-.37-.16-.81-.44-1.06-.56-.51-1.58-.64-2.12,0h0Z" class="cls-93" style="fill: rgb(238, 163, 122); stroke-width: 0px;"/>
      <path d="m748.43,295.35c-.68,1.93-1.1,3.92-1.34,5.96-.04.35.2.82.44,1.06.26.26.69.46,1.06.44s.79-.14,1.06-.44c.29-.31.39-.64.44-1.06,0-.04.06-.48.03-.22s.03-.18.03-.22c.03-.21.07-.42.1-.63.08-.47.18-.94.29-1.4.21-.91.48-1.81.79-2.69.26-.74-.29-1.67-1.05-1.85-.84-.19-1.57.25-1.85,1.05h0Z" class="cls-93" style="fill: rgb(238, 163, 122); stroke-width: 0px;"/>
      <path d="m753.61,295.22c-1.29,2.14-1.88,4.75-1.57,7.23.05.41.13.75.44,1.06.26.26.69.46,1.06.44.73-.03,1.61-.67,1.5-1.5-.07-.55-.1-1.1-.08-1.65,0-.26.03-.51.06-.77.02-.17.02-.15-.01.07.01-.07.02-.15.03-.22.02-.13.05-.25.07-.38.11-.52.26-1.04.45-1.54.03-.07.05-.14.08-.21-.08.19-.09.21-.02.05.05-.1.09-.2.14-.3.13-.27.27-.52.42-.78.4-.67.17-1.68-.54-2.05s-1.62-.18-2.05.54h0Z" class="cls-93" style="fill: rgb(238, 163, 122); stroke-width: 0px;"/>
      <path d="m769.23,301.31c.06.48.09.97.07,1.46,0,.23-.03.45-.05.68-.02.17-.01.13.02-.11,0,.06-.02.13-.03.19-.02.11-.04.22-.06.34-.1.46-.23.91-.39,1.36-.02.06-.05.12-.07.18-.06.15-.05.12.04-.09,0,0-.12.25-.12.27-.11.23-.24.46-.37.69-.4.68-.18,1.68.54,2.05s1.63.18,2.05-.54c1.14-1.92,1.67-4.25,1.38-6.47-.05-.41-.13-.75-.44-1.06-.26-.26-.69-.46-1.06-.44s-.79.14-1.06.44c-.25.27-.49.68-.44,1.06h0Z" class="cls-93" style="fill: rgb(238, 163, 122); stroke-width: 0px;"/>
      <path d="m773.78,301.49c.02.07.03.13.05.2.05.2-.01-.01,0-.1-.01.13.02.27.02.4,0,.15-.02.3-.02.45,0,.2.06-.3.01-.1-.01.07-.02.13-.04.2-.11.56-.31,1.11-.52,1.64-.47,1.21-.92,2.35-1.08,3.64-.09.78.76,1.53,1.5,1.5.89-.04,1.4-.66,1.5-1.5-.01.09-.05.29-.01.09.01-.07.02-.14.04-.21.03-.16.07-.31.11-.46.08-.29.18-.58.28-.86.21-.57.45-1.13.66-1.7.48-1.29.72-2.64.38-3.99-.19-.76-1.09-1.29-1.85-1.05s-1.25,1.03-1.05,1.85h0Z" class="cls-93" style="fill: rgb(238, 163, 122); stroke-width: 0px;"/>
    </g>
    <g transform="matrix(1, 0, 0, 1, -251.408829, -35.544544)">
      <g>
        <path d="m733.39,252.49c1.46,2.34,2.26,4.82,2.4,7.56-1.45-2.29-2.27-4.87-2.4-7.56h0Z" class="cls-28" style="fill: rgb(239, 94, 69); stroke-width: 0px;"/>
        <path d="m735.79,251.33c1.45,2.31,2.26,4.84,2.4,7.56-1.46-2.3-2.26-4.84-2.4-7.56h0Z" class="cls-28" style="fill: rgb(239, 94, 69); stroke-width: 0px;"/>
        <path d="m738.93,249.97c1.55,2.36,2.46,4.96,2.72,7.77-1.55-2.36-2.46-4.96-2.72-7.77h0Z" class="cls-28" style="fill: rgb(239, 94, 69); stroke-width: 0px;"/>
        <path d="m741.65,249.97c-3.07,2.31-6.54,4.06-10.24,5.15,3.12-2.34,6.49-4.03,10.24-5.15h0Z" class="cls-28" style="fill: rgb(239, 94, 69); stroke-width: 0px;"/>
        <path d="m742.38,252.49c-2.98,2.35-6.3,4.11-9.93,5.25,2.98-2.36,6.3-4.11,9.93-5.25h0Z" class="cls-28" style="fill: rgb(239, 94, 69); stroke-width: 0px;"/>
        <path d="m743.21,255.11c-2.98,2.13-6.26,3.64-9.82,4.52,2.98-2.13,6.27-3.64,9.82-4.52h0Z" class="cls-28" style="fill: rgb(239, 94, 69); stroke-width: 0px;"/>
      </g>
      <g>
        <path d="m779.91,262.95c1.8,2.8,2.97,5.85,3.48,9.14-1.8-2.79-2.96-5.85-3.48-9.14h0Z" class="cls-28" style="fill: rgb(239, 94, 69); stroke-width: 0px;"/>
        <path d="m782.52,261.3c1.86,2.92,3.1,6.11,3.67,9.53-1.87-2.92-3.09-6.11-3.67-9.53h0Z" class="cls-28" style="fill: rgb(239, 94, 69); stroke-width: 0px;"/>
        <path d="m785.62,260.13c1.77,2.84,2.91,5.93,3.38,9.23-1.77-2.83-2.9-5.93-3.38-9.23h0Z" class="cls-28" style="fill: rgb(239, 94, 69); stroke-width: 0px;"/>
        <path d="m787.94,260.81c-2.96,2.35-6.26,4.11-9.86,5.25,2.96-2.36,6.26-4.11,9.86-5.25h0Z" class="cls-28" style="fill: rgb(239, 94, 69); stroke-width: 0px;"/>
        <path d="m789,264.02c-2.7,2.22-5.74,3.85-9.09,4.86,2.7-2.23,5.74-3.85,9.09-4.86h0Z" class="cls-28" style="fill: rgb(239, 94, 69); stroke-width: 0px;"/>
        <path d="m790.36,266.45c-2.76,2.28-5.86,3.98-9.28,5.06,2.76-2.29,5.87-3.97,9.28-5.06h0Z" class="cls-28" style="fill: rgb(239, 94, 69); stroke-width: 0px;"/>
      </g>
    </g>
    <polygon points="461.801 255.845 536.761 277.565 534.741 283.915 459.731 262.615 461.801 255.845" class="cls-93" style="fill: rgb(238, 163, 122); stroke-width: 0px;"/>
    <polygon points="536.761 277.565 558.281 269.885 556.401 275.805 534.741 283.915 536.761 277.565" class="cls-28" style="fill: rgb(239, 94, 69); stroke-width: 0px;"/>
    <path d="M 446.351 178.595 C 446.351 178.595 451.571 182.325 451.571 183.565 C 451.571 184.805 450.271 184.805 450.271 184.805 C 450.271 184.805 446.361 183.565 445.051 181.695 C 443.741 179.825 446.351 178.585 446.351 178.585 L 446.351 178.595 Z" class="cls-9" style="fill: rgb(242, 239, 199); stroke-width: 0px;"/>
    <path d="M 443.251 181.705 C 443.251 181.705 450.031 184.435 450.181 185.605 C 450.331 186.775 448.751 186.985 448.751 186.985 C 448.751 186.985 443.851 186.415 442.041 184.845 C 440.231 183.275 443.251 181.695 443.251 181.695 L 443.251 181.705 Z" class="cls-9" style="fill: rgb(242, 239, 199); stroke-width: 0px;"/>
    <path d="M 442.151 185.605 C 442.151 185.605 447.771 186.935 448.121 187.915 C 448.461 188.895 447.321 189.295 447.321 189.295 C 447.321 189.295 443.531 189.525 441.871 188.455 C 440.211 187.385 442.161 185.605 442.161 185.605 L 442.151 185.605 Z" class="cls-9" style="fill: rgb(242, 239, 199); stroke-width: 0px;"/>
  </g>
</svg>