<?xml version="1.0" encoding="utf-8"?>
<svg viewBox="0 0 500 500" xmlns="http://www.w3.org/2000/svg">
  <g id="Logos" transform="matrix(1, 0, 0, 1, -79.94848632812506, -1.3714059591293335)">
    <path d="m280.68,147.61c0,22.22-16.61,40.55-38.09,43.27-1.81.23-3.65.35-5.53.35-24.09,0-43.61-19.53-43.61-43.61s19.53-43.61,43.61-43.61,43.61,19.53,43.61,43.61Z" class="cls-48" style="fill: rgb(39, 34, 63); stroke-width: 0px;"/>
    <path d="m232.79,164.01l17.52,75.23s8.27,4.16,13.27-3.84l-20.39-73.89" class="cls-48" style="fill: rgb(39, 34, 63); stroke-width: 0px;"/>
    <circle r="32.24" cy="147.2" cx="236.65" class="cls-36" style="fill: rgb(203, 175, 239); stroke-width: 0px;"/>
  </g>
  <g id="Veebee" transform="matrix(1, 0, 0, 1, -79.94848632812506, -1.3714059591293335)">
    <ellipse ry="1.08" rx="21.58" cy="348.54" cx="328.43" class="cls-48" style="fill: rgb(39, 34, 63); stroke-width: 0px;"/>
    <path d="m286.72,300.02l-.23.49-7.77,23.18s-5.15,11.2-3.48,13.73c1.67,2.52,12.26-8.4,12.26-8.4,0,0,9.19-12.36,10.44-25.25v-.55" class="cls-53" style="fill: rgb(211, 207, 171); stroke-width: 0px;"/>
    <path d="m311.62,307.11l.18.94s2.05,15.1,4.83,26.16c2.79,11.06,10.59,12.61,13.09,14.01s4.32-1.96.98-7.7-5.29-19.04-6.82-28.98l-.18-1" class="cls-53" style="fill: rgb(211, 207, 171); stroke-width: 0px;"/>
    <path d="m242.97,208.42s5.22,3.73,5.22,4.97-1.3,1.24-1.3,1.24c0,0-3.91-1.24-5.22-3.11-1.3-1.86,1.3-3.11,1.3-3.11Z" class="cls-9" style="fill: rgb(242, 239, 199); stroke-width: 0px;"/>
    <path d="m242.54,213.21s6.78,2.73,6.93,3.9c.15,1.18-1.43,1.38-1.43,1.38,0,0-4.9-.57-6.71-2.14s1.21-3.15,1.21-3.15Z" class="cls-9" style="fill: rgb(242, 239, 199); stroke-width: 0px;"/>
    <path d="m243.17,218.24s5.62,1.33,5.97,2.31-.8,1.38-.8,1.38c0,0-3.79.23-5.45-.84-1.66-1.07.29-2.85.29-2.85Z" class="cls-9" style="fill: rgb(242, 239, 199); stroke-width: 0px;"/>
    <path d="m257.77,214.27c1.63,5.57,2.51,11.34,6.44,15.88,4.22,4.88,9.3,9.47,14.61,13.12l1.58.99" class="cls-67" style="fill: rgb(225, 222, 184); stroke-width: 0px;"/>
    <path d="m260.51,217.96c-.83-.93-7.09-9.71-3.52-10.32,1.51-.26,3.28,4.15,3.89,5.16,2.72,4.5,5.73,9.12,8.81,13.37s7.31,7.2,11.78,10.01l1.18.69-2.25,7.36" class="cls-67" style="fill: rgb(225, 222, 184); stroke-width: 0px;"/>
    <path d="m265.2,293.91c2.19-7.16,12.32-40.27,15.2-49.67,3.45-11.29,6.91-22.58,10.36-33.87l75.57,22.69-26.12,82.15-75.02-21.3Z" class="cls-9" style="fill: rgb(242, 239, 199); stroke-width: 0px;"/>
    <polygon points="388.07 224.57 366.34 233.07 340.22 315.22 361.87 307.11 388.07 224.57" class="cls-53" style="fill: rgb(211, 207, 171); stroke-width: 0px;"/>
    <polygon points="391.29 223.4 366.34 233.07 370.1 221.09 394.76 211.56 391.29 223.4" class="cls-28" style="fill: rgb(239, 94, 69); stroke-width: 0px;"/>
    <polygon points="291.73 197.44 370.1 221.09 366.34 233.07 287.67 209.54 291.73 197.44" class="cls-93" style="fill: rgb(238, 163, 122); stroke-width: 0px;"/>
    <polygon points="320.58 189.32 291.73 197.44 370.1 221.09 394.76 211.56 320.58 189.32" class="cls-93" style="fill: rgb(238, 163, 122); stroke-width: 0px;"/>
    <path d="m396.99,275.33c2.39,1.87-.44,6.95-.44,6.95l1.54,9.51-5.79.95c-1,.5-4.35.43-5.47.41-22.34-.31-26.13-21.22-26.13-21.22,2.84-4.67,8.12-2.59,8.12-2.59,0,0,1.03,15.16,17.39,15.2,0,0,2.37-3.52,4.31-3.52.37,0,2.68-.75,3.31-2.22,1.92-4.47,2.82-3.73,3.16-3.46Z" class="cls-67" style="fill: rgb(225, 222, 184); stroke-width: 0px;"/>
    <path d="m401.01,288.79c-5.03-.14-10.18-.7-10.06,1.4.12,2.1,5.03,1.82,5.03,1.82h3.35s1.2.14,2.27-.98-.6-2.24-.6-2.24Z" class="cls-9" style="fill: rgb(242, 239, 199); stroke-width: 0px;"/>
    <path d="m401,285.14c-5.01-.15-10.14-.75-10.02,1.5s5.01,1.95,5.01,1.95h3.34s1.19.15,2.27-1.05c1.07-1.2-.6-2.4-.6-2.4Z" class="cls-9" style="fill: rgb(242, 239, 199); stroke-width: 0px;"/>
    <path d="m390.96,282.92s.03-2.11,8.65-1.62c0,0,2.6.65,1.77,3.67,0,0-10.64.6-10.42-2.06Z" class="cls-9" style="fill: rgb(242, 239, 199); stroke-width: 0px;"/>
    <path d="m357.89,207.77c1.77-8.04,2-7.09,8.61-12.98s4.04-11.77,4.04-11.77l-19.85-5.46s1.46,4.62-6.9,11.56c-8.36,6.93-7.84,12.01-7.84,12.01" class="cls-66" id="paper" style="fill: rgb(255, 255, 255); stroke-width: 0px;"/>
    <path d="m303.95,259.34c5.11,8.55,11.35,11.45,20.54,6.65-7.94,7.27-17.82,3.24-20.54-6.65h0Z" class="cls-48" style="fill: rgb(39, 34, 63); stroke-width: 0px;"/>
    <path d="m306.67,231.1c2.91,3.65,5.35,7.61,7.69,11.64-1.09.55-2.18,1.15-3.28,1.68-2.62,1.3-5.26,2.52-8.03,3.51,2.36-1.75,4.85-3.27,7.38-4.73.84-.5,1.7-.95,2.55-1.42l-.29,1.03c-2.23-3.79-4.34-7.63-6.01-11.71h0Z" class="cls-48" style="fill: rgb(39, 34, 63); stroke-width: 0px;"/>
    <ellipse transform="translate(-3.71 489.14) rotate(-72.86)" ry="4.6" rx="7.96" cy="247.09" cx="329.53" class="cls-48" style="fill: rgb(39, 34, 63); stroke-width: 0px;"/>
    <path d="m329.77,199.25c1.42.21,2.82.5,4.22.75l4.07,1.24,8.15,2.47,8.15,2.47,4.08,1.23c1.31.57,2.63,1.11,3.93,1.71-1.42-.22-2.81-.51-4.22-.76l-4.08-1.23-8.15-2.47-8.15-2.47-4.08-1.23c-1.31-.57-2.63-1.1-3.93-1.72,0,0,1.3.61,0,0Z" class="cls-48" style="fill: rgb(39, 34, 63); stroke-width: 0px;"/>
    <g id="Frills">
      <path d="m270.36,273.58c2.85,4.45,8.64,7.34,13.93,6.43.62-.11,1.21-.28,1.79-.51.27-.11.63-.36.92-.42l-.38-.03c.11.21.22.41.33.62.73,1.3,1.68,2.51,2.78,3.52,2.26,2.07,5.09,3.4,8.14,3.75s6.5-.39,9.2-2.08c.28-.17.79-.42.99-.69l.32-.23c-.36-.21-.41-.14-.15.21.11.61.79,1.35,1.17,1.82.9,1.12,2.05,2.05,3.31,2.76,2.92,1.63,6.29,2.03,9.59,1.87.93-.05,1.86-.14,2.79-.25.6-.07,1.69-.45,2.27-.28.52.15.83.81,1.2,1.23.49.55,1.04,1.04,1.62,1.5,4.56,3.62,11.6,5.25,17.1,2.95.75-.31,1.27-.99,1.05-1.85-.19-.71-1.1-1.36-1.85-1.05-4.57,1.91-10.35.75-14.23-2.22-.92-.7-1.6-1.55-2.34-2.42-1.2-1.4-2.69-1.13-4.36-.92-3.27.4-6.7.67-9.85-.48-1.17-.42-2.3-1.07-3.21-1.92-.52-.48-.97-1.02-1.33-1.63s-.58-1.32-1.12-1.81c-1.27-1.15-2.63-.47-3.81.36-1.33.94-2.78,1.6-4.37,1.95-2.94.65-6,.06-8.53-1.56-1.14-.73-2.17-1.69-2.98-2.78-.78-1.05-1.2-2.62-2.49-3.18-1.4-.6-2.7.56-4.06.82s-2.73.11-4.03-.24c-2.71-.73-5.29-2.38-6.82-4.76-1.04-1.62-3.64-.12-2.59,1.51h0Z" class="cls-93" style="fill: rgb(238, 163, 122); stroke-width: 0px;"/>
      <path d="m269.27,279.44c2.43,1.29,4.7,2.87,7.2,4.02,1.21.56,2.46,1.06,3.77,1.3s2.63.09,3.97.17c1.52.09,2.59,1.1,3.72,2.02s2.17,1.75,3.37,2.45c2.5,1.46,5.2,1.75,8.04,1.68s5.64-.22,8.23,1.42,4.75,3.29,7.58,4.18c2.99.94,5.79.4,8.82.05s5.28.53,7.82,2.07c3.74,2.27,10.45,6.3,14.34,2.18,1.33-1.4-.79-3.53-2.12-2.12-1.39,1.47-3.86.69-5.51.1-2.24-.81-4.18-2.19-6.23-3.36-2.31-1.31-4.71-2.13-7.4-1.96-2.88.18-5.64,1.06-8.51.26-2.74-.76-4.92-2.5-7.28-4-2.35-1.49-4.88-1.92-7.62-1.89s-5.44.4-7.92-.81-4.15-3.43-6.56-4.61c-1.44-.7-2.88-.65-4.44-.64-1.32.01-2.57-.29-3.79-.77-2.82-1.1-5.31-2.93-7.98-4.35-1.7-.91-3.22,1.68-1.51,2.59h0Z" class="cls-93" style="fill: rgb(238, 163, 122); stroke-width: 0px;"/>
      <path d="m280.92,284.58c-.71,1.62-1.43,3.24-2.14,4.86-.17.38-.27.74-.15,1.16.1.35.36.73.69.9.35.18.77.28,1.16.15.35-.11.74-.34.9-.69.71-1.62,1.43-3.24,2.14-4.86.17-.38.27-.74.15-1.16-.1-.35-.36-.73-.69-.9-.35-.18-.77-.28-1.16-.15-.35.11-.74.34-.9.69h0Z" class="cls-93" style="fill: rgb(238, 163, 122); stroke-width: 0px;"/>
      <path d="m286.89,284.97c-.75.88-1.4,1.84-1.86,2.9-.51,1.18-.82,2.35-.96,3.63-.04.36.2.82.44,1.06.26.26.69.46,1.06.44s.79-.14,1.06-.44c.29-.31.39-.64.44-1.06,0-.06.01-.12.02-.18-.03.25-.04.29-.02.13.02-.12.04-.24.06-.36.05-.24.1-.48.17-.72s.14-.47.22-.7c.04-.12.08-.23.13-.34.02-.06.05-.11.07-.17-.09.2-.11.25-.06.15.2-.43.41-.85.66-1.26.13-.21.27-.41.41-.61.04-.05.07-.1.11-.15-.14.18-.16.21-.07.09.08-.09.16-.19.24-.28.26-.31.44-.65.44-1.06,0-.37-.16-.81-.44-1.06-.56-.51-1.58-.64-2.12,0h0Z" class="cls-93" style="fill: rgb(238, 163, 122); stroke-width: 0px;"/>
      <path d="m302.5,291.11c-.68,1.93-1.1,3.92-1.34,5.96-.04.35.2.82.44,1.06.26.26.69.46,1.06.44s.79-.14,1.06-.44c.29-.31.39-.64.44-1.06,0-.04.06-.48.03-.22s.03-.18.03-.22c.03-.21.07-.42.1-.63.08-.47.18-.94.29-1.4.21-.91.48-1.81.79-2.69.26-.74-.29-1.67-1.05-1.85-.84-.19-1.57.25-1.85,1.05h0Z" class="cls-93" style="fill: rgb(238, 163, 122); stroke-width: 0px;"/>
      <path d="m307.68,290.97c-1.29,2.14-1.88,4.75-1.57,7.23.05.41.13.75.44,1.06.26.26.69.46,1.06.44.73-.03,1.61-.67,1.5-1.5-.07-.55-.1-1.1-.08-1.65,0-.26.03-.51.06-.77.02-.17.02-.15-.01.07.01-.07.02-.15.03-.22.02-.13.05-.25.07-.38.11-.52.26-1.04.45-1.54.03-.07.05-.14.08-.21-.08.19-.09.21-.02.05.05-.1.09-.2.14-.3.13-.27.27-.52.42-.78.4-.67.17-1.68-.54-2.05s-1.62-.18-2.05.54h0Z" class="cls-93" style="fill: rgb(238, 163, 122); stroke-width: 0px;"/>
      <path d="m323.3,297.06c.06.48.09.97.07,1.46,0,.23-.03.45-.05.68-.02.17-.01.13.02-.11,0,.06-.02.13-.03.19-.02.11-.04.22-.06.34-.1.46-.23.91-.39,1.36-.02.06-.05.12-.07.18-.06.15-.05.12.04-.09,0,0-.12.25-.12.27-.11.23-.24.46-.37.69-.4.68-.18,1.68.54,2.05s1.63.18,2.05-.54c1.14-1.92,1.67-4.25,1.38-6.47-.05-.41-.13-.75-.44-1.06-.26-.26-.69-.46-1.06-.44s-.79.14-1.06.44c-.25.27-.49.68-.44,1.06h0Z" class="cls-93" style="fill: rgb(238, 163, 122); stroke-width: 0px;"/>
      <path d="m327.84,297.25c.02.07.03.13.05.2.05.2-.01-.01,0-.1-.01.13.02.27.02.4,0,.15-.02.3-.02.45,0,.2.06-.3.01-.1-.01.07-.02.13-.04.2-.11.56-.31,1.11-.52,1.64-.47,1.21-.92,2.35-1.08,3.64-.09.78.76,1.53,1.5,1.5.89-.04,1.4-.66,1.5-1.5-.01.09-.05.29-.01.09.01-.07.02-.14.04-.21.03-.16.07-.31.11-.46.08-.29.18-.58.28-.86.21-.57.45-1.13.66-1.7.48-1.29.72-2.64.38-3.99-.19-.76-1.09-1.29-1.85-1.05s-1.25,1.03-1.05,1.85h0Z" class="cls-93" style="fill: rgb(238, 163, 122); stroke-width: 0px;"/>
    </g>
    <g>
      <g>
        <path d="m287.46,248.24c1.46,2.34,2.26,4.82,2.4,7.56-1.45-2.29-2.27-4.87-2.4-7.56h0Z" class="cls-28" style="fill: rgb(239, 94, 69); stroke-width: 0px;"/>
        <path d="m289.86,247.09c1.45,2.31,2.26,4.84,2.4,7.56-1.46-2.3-2.26-4.84-2.4-7.56h0Z" class="cls-28" style="fill: rgb(239, 94, 69); stroke-width: 0px;"/>
        <path d="m292.99,245.72c1.55,2.36,2.46,4.96,2.72,7.77-1.55-2.36-2.46-4.96-2.72-7.77h0Z" class="cls-28" style="fill: rgb(239, 94, 69); stroke-width: 0px;"/>
        <path d="m295.71,245.72c-3.07,2.31-6.54,4.06-10.24,5.15,3.12-2.34,6.49-4.03,10.24-5.15h0Z" class="cls-28" style="fill: rgb(239, 94, 69); stroke-width: 0px;"/>
        <path d="m296.44,248.24c-2.98,2.35-6.3,4.11-9.93,5.25,2.98-2.36,6.3-4.11,9.93-5.25h0Z" class="cls-28" style="fill: rgb(239, 94, 69); stroke-width: 0px;"/>
        <path d="m297.28,250.87c-2.98,2.13-6.26,3.64-9.82,4.52,2.98-2.13,6.27-3.64,9.82-4.52h0Z" class="cls-28" style="fill: rgb(239, 94, 69); stroke-width: 0px;"/>
      </g>
      <g>
        <path d="m333.98,258.71c1.8,2.8,2.97,5.85,3.48,9.14-1.8-2.79-2.96-5.85-3.48-9.14h0Z" class="cls-28" style="fill: rgb(239, 94, 69); stroke-width: 0px;"/>
        <path d="m336.59,257.05c1.86,2.92,3.1,6.11,3.67,9.53-1.87-2.92-3.09-6.11-3.67-9.53h0Z" class="cls-28" style="fill: rgb(239, 94, 69); stroke-width: 0px;"/>
        <path d="m339.68,255.89c1.77,2.84,2.91,5.93,3.38,9.23-1.77-2.83-2.9-5.93-3.38-9.23h0Z" class="cls-28" style="fill: rgb(239, 94, 69); stroke-width: 0px;"/>
        <path d="m342,256.57c-2.96,2.35-6.26,4.11-9.86,5.25,2.96-2.36,6.26-4.11,9.86-5.25h0Z" class="cls-28" style="fill: rgb(239, 94, 69); stroke-width: 0px;"/>
        <path d="m343.07,259.78c-2.7,2.22-5.74,3.85-9.09,4.86,2.7-2.23,5.74-3.85,9.09-4.86h0Z" class="cls-28" style="fill: rgb(239, 94, 69); stroke-width: 0px;"/>
        <path d="m344.42,262.21c-2.76,2.28-5.86,3.98-9.28,5.06,2.76-2.29,5.87-3.97,9.28-5.06h0Z" class="cls-28" style="fill: rgb(239, 94, 69); stroke-width: 0px;"/>
      </g>
    </g>
    <polygon points="267.27 287.15 342.24 308.86 340.22 315.22 265.2 293.91 267.27 287.15" class="cls-93" style="fill: rgb(238, 163, 122); stroke-width: 0px;"/>
    <polygon points="342.24 308.86 363.75 301.18 361.87 307.11 340.22 315.22 342.24 308.86" class="cls-28" style="fill: rgb(239, 94, 69); stroke-width: 0px;"/>
  </g>
</svg>